<svg width="45" height="47" viewBox="0 0 45 47" fill="none" xmlns="http://www.w3.org/2000/svg">
<path d="M11.25 3.55341C17.4656 3.55341 22.5 8.55696 22.5 14.7294C22.5 8.55696 27.5344 3.55341 33.75 3.55341C39.9656 3.55341 45 8.55696 45 14.7294C45 24.0323 35.9044 27.3139 23.6025 42.1221C23.4671 42.2847 23.2982 42.4155 23.1078 42.5051C22.9174 42.5948 22.71 42.6412 22.5 42.6412C22.29 42.6412 22.0826 42.5948 21.8922 42.5051C21.7018 42.4155 21.5329 42.2847 21.3975 42.1221C9.09562 27.3139 0 24.0323 0 14.7294C0 8.55696 5.03437 3.55341 11.25 3.55341Z" fill="#FF5C83"/>
<path d="M19.5262 24.7173C18.6742 24.7653 16.7902 24.7893 15.9382 24.8013C15.5542 24.7293 14.8462 24.6693 14.4622 24.6693C14.3902 24.6693 14.3542 24.6933 14.3422 24.7293L14.2702 25.0053C14.5102 25.1013 14.7622 25.2573 14.8942 25.3893L15.1102 28.1613C15.1342 28.3773 15.1822 28.6293 15.2542 28.7853H15.8182C15.9022 28.6893 15.9622 28.5813 15.9862 28.4493L20.4742 28.3893C20.5582 28.3173 20.6422 28.1373 20.6422 27.9333C20.6422 27.8613 20.6062 27.8133 20.5462 27.7773L20.3182 27.6813C20.4622 26.9493 20.5702 26.1093 20.6062 25.4013L20.7502 24.9573C20.7742 24.8973 20.7622 24.8373 20.7142 24.8013C20.6062 24.7293 20.3182 24.5853 20.1622 24.5253C20.1022 24.5013 20.0182 24.5013 19.9582 24.5253L19.5262 24.7173ZM15.9622 25.4493C17.0662 25.4133 18.4102 25.3773 19.5502 25.3773L19.5022 27.6693L19.2622 27.7413C18.4942 27.7773 16.9582 27.8013 16.0222 27.8013L15.9622 25.4493ZM19.7302 22.4133C19.7302 22.8693 19.7542 23.8173 19.8262 24.2013H20.4142C20.6062 23.7213 20.7382 22.8333 20.7382 22.1133V18.5853L20.7742 17.9373C20.7742 17.8053 20.7262 17.7213 20.6182 17.6733C20.2582 17.5293 19.4662 17.3613 18.9982 17.3493C18.8902 17.3493 18.8542 17.3613 18.8422 17.4093L18.7342 17.7453C19.1542 17.8893 19.5262 18.1173 19.7302 18.3693V20.6253C19.1662 20.6613 18.3382 20.6733 17.9662 20.6733C17.7622 20.6733 17.5342 20.6613 17.3182 20.6493C17.1022 19.4973 16.0582 18.7053 14.6902 18.7053C13.1422 18.7053 12.0142 19.7013 12.0142 21.0933C12.0142 22.4853 13.1422 23.4933 14.6902 23.4933C16.1902 23.4933 17.3062 22.5333 17.3542 21.1773C17.4982 21.2733 17.6542 21.3573 17.8342 21.4293C18.0382 21.3453 18.3622 21.2613 18.5782 21.2373C18.8062 21.2133 19.3222 21.1893 19.7302 21.2013V22.4133ZM13.0342 21.0933C13.0342 20.0733 13.7422 19.4373 14.6902 19.4373C15.6382 19.4373 16.3462 20.0733 16.3462 21.0933C16.3462 22.1013 15.6382 22.7373 14.6902 22.7373C13.7422 22.7373 13.0342 22.1013 13.0342 21.0933ZM32.388 22.3653L31.608 22.3893V18.5973L31.644 17.9373C31.644 17.8053 31.596 17.7213 31.488 17.6733C31.116 17.5293 30.312 17.3613 29.844 17.3493C29.736 17.3493 29.712 17.3613 29.688 17.4093L29.58 17.7333C30.012 17.8893 30.396 18.1173 30.6 18.3813V26.5653C30.6 27.1053 30.636 28.4133 30.684 28.8933H31.26C31.476 28.1733 31.608 26.9493 31.608 26.2293V23.0133L33.624 22.9773C33.72 22.9773 33.828 22.9533 33.9 22.8933C33.972 22.8213 34.044 22.6413 34.044 22.4013C34.032 22.3053 33.96 22.2213 33.84 22.1853C33.624 22.1373 33.132 22.1133 32.772 22.1253L32.388 22.3653ZM27.732 19.7493C27 19.7853 25.5 19.8093 24.768 19.8093C24.384 19.7373 23.64 19.6773 23.244 19.6773C23.16 19.6773 23.124 19.7013 23.112 19.7373L23.04 20.0253C23.292 20.1213 23.544 20.2653 23.676 20.4093L23.928 24.6453C23.94 24.8973 23.988 25.2213 24.048 25.4493H24.612C24.708 25.2813 24.768 25.1013 24.804 24.8973L28.74 24.8493C28.812 24.7773 28.896 24.5973 28.896 24.4053C28.896 24.3333 28.86 24.2853 28.8 24.2613L28.572 24.1653C28.704 23.0013 28.824 21.5853 28.848 20.4333L29.004 19.9893C29.04 19.9173 29.028 19.8693 28.98 19.8333C28.86 19.7373 28.548 19.5813 28.392 19.5093C28.332 19.4733 28.236 19.4733 28.176 19.5093L27.732 19.7493ZM24.768 20.4213C25.692 20.3973 26.82 20.3733 27.756 20.3733L27.72 24.1533L27.492 24.2253C26.868 24.2613 25.584 24.2733 24.828 24.2613L24.768 20.4213Z" fill="white"/>
</svg>
