<svg width="46" height="46" viewBox="0 0 46 46" fill="none" xmlns="http://www.w3.org/2000/svg">
<g clip-path="url(#clip0_24_353)">
<path d="M12.1 3.23102C18.3156 3.23102 23.35 8.23457 23.35 14.407C23.35 8.23457 28.3844 3.23102 34.6 3.23102C40.8156 3.23102 45.85 8.23457 45.85 14.407C45.85 23.7099 36.7544 26.9915 24.4525 41.7997C24.3171 41.9624 24.1482 42.0931 23.9578 42.1827C23.7674 42.2724 23.56 42.3188 23.35 42.3188C23.14 42.3188 22.9326 42.2724 22.7422 42.1827C22.5518 42.0931 22.3829 41.9624 22.2475 41.7997C9.94563 26.9915 0.850006 23.7099 0.850006 14.407C0.850006 8.23457 5.88438 3.23102 12.1 3.23102Z" fill="#0092E4"/>
</g>
<path d="M15.2882 23.7109C14.2802 23.7109 13.5122 23.0269 13.5122 21.8869C13.5122 20.7469 14.2802 20.0509 15.2882 20.0509C16.2962 20.0509 17.0522 20.7469 17.0522 21.8869C17.0522 23.0269 16.2962 23.7109 15.2882 23.7109ZM15.2882 19.2709C13.6562 19.2709 12.4562 20.3629 12.4562 21.8869C12.4562 23.4109 13.6562 24.5029 15.2882 24.5029C16.9082 24.5029 18.0962 23.4109 18.0962 21.8869C18.0962 20.3629 16.9082 19.2709 15.2882 19.2709ZM21.6482 21.9229L20.8682 21.9589V18.2749L20.9042 17.6149C20.9042 17.4829 20.8562 17.3989 20.7482 17.3509C20.3762 17.2069 19.5722 17.0389 19.1042 17.0269C18.9962 17.0269 18.9722 17.0389 18.9482 17.0869L18.8402 17.4109C19.2722 17.5669 19.6562 17.7949 19.8602 18.0589V26.2429C19.8602 26.7829 19.8962 28.0909 19.9442 28.5709H20.5202C20.7362 27.8509 20.8682 26.6269 20.8682 25.9069V22.5829L22.8842 22.5349C22.9802 22.5349 23.0882 22.5109 23.1602 22.4629C23.2322 22.3909 23.3042 22.1989 23.3042 21.9709C23.2922 21.8629 23.2202 21.7789 23.1002 21.7549C22.8842 21.7069 22.3922 21.6829 22.0322 21.6949L21.6482 21.9229ZM33.322 22.1029L32.734 22.1269V18.2389L32.77 17.6149C32.77 17.4829 32.722 17.3989 32.614 17.3509C32.266 17.2069 31.51 17.0389 31.066 17.0269C30.958 17.0269 30.922 17.0389 30.91 17.0869L30.802 17.4229C31.198 17.5549 31.558 17.7829 31.762 18.0229V26.2669C31.762 26.8069 31.798 28.0789 31.846 28.5709H32.41C32.614 27.8629 32.734 26.6509 32.734 25.9429V22.7389L34.462 22.7149C34.57 22.7149 34.678 22.6789 34.75 22.6189C34.822 22.5469 34.894 22.3789 34.882 22.1509C34.882 22.0429 34.798 21.9589 34.678 21.9229C34.474 21.8749 34.018 21.8509 33.694 21.8629L33.322 22.1029ZM30.634 24.3229C30.694 24.0229 30.742 23.5789 30.742 23.2309L30.79 19.3309L30.802 18.9229C30.814 18.8149 30.778 18.7549 30.694 18.7189C30.43 18.6109 29.986 18.5149 29.65 18.4909C29.554 18.4789 29.518 18.5029 29.506 18.5509L29.386 18.8509C29.626 18.9469 29.806 19.0549 29.914 19.1749V21.2629L28.762 21.2869L28.774 19.6909L28.786 19.2709C28.798 19.1629 28.774 19.1029 28.666 19.0669C28.438 18.9829 28.03 18.8989 27.718 18.8749C27.634 18.8749 27.598 18.8869 27.574 18.9349L27.466 19.2589C27.67 19.3309 27.826 19.4509 27.91 19.5469L27.958 24.7549C27.958 24.9589 27.994 25.2589 28.066 25.4509H28.51C28.594 25.3429 28.678 25.1869 28.726 24.9469C29.242 24.9469 30.322 24.9349 30.79 24.9349C30.85 24.8629 30.922 24.7069 30.922 24.5389C30.922 24.4669 30.886 24.4309 30.826 24.3949L30.634 24.3229ZM29.914 21.8869V24.2989L28.75 24.3109L28.762 21.9229L29.914 21.8869ZM27.01 24.4789C27.07 24.1789 27.118 23.7469 27.118 23.3989L27.154 20.0269L27.178 19.6309C27.19 19.5349 27.166 19.4749 27.07 19.4389C26.842 19.3429 26.434 19.2349 26.122 19.2109C26.038 19.1989 26.002 19.2229 25.978 19.2709L25.87 19.5709C26.074 19.6549 26.23 19.7629 26.314 19.8829V21.4669L25.198 21.4909L25.21 20.3989L25.222 19.9909C25.234 19.8709 25.21 19.8109 25.114 19.7869C24.862 19.7029 24.43 19.6189 24.106 19.6069C24.01 19.5949 23.974 19.6189 23.95 19.6669L23.854 19.9909C24.07 20.0629 24.25 20.1709 24.346 20.2789L24.394 24.8749C24.394 25.0789 24.43 25.3669 24.49 25.5589H24.946C25.03 25.4749 25.114 25.3189 25.162 25.1029C25.69 25.0909 26.722 25.0909 27.166 25.0789C27.238 25.0189 27.298 24.8629 27.298 24.6949C27.298 24.6229 27.274 24.5869 27.214 24.5509L27.01 24.4789ZM26.314 22.1029V24.4549H25.186L25.198 22.1269L26.314 22.1029Z" fill="white"/>
<defs>
<clipPath id="clip0_24_353">
<rect width="45" height="45.6164" fill="white" transform="translate(0.850006 0.380005)"/>
</clipPath>
</defs>
</svg>
